<svg width="97" height="44" viewBox="0 0 97 44" fill="none" xmlns="http://www.w3.org/2000/svg">
<path d="M49.9332 44H37.9025L25.1076 28.584L12.0307 44H0L18.8306 21.3669L1.04595 0H13.0767L31.1025 21.3669C34.6163 25.5664 37.4327 28.9482 39.5521 31.5123C41.6708 34.0761 43.1194 35.8331 43.8977 36.7826L49.9331 44H49.9332ZM35.5285 16.0173L29.2919 8.83171L36.8564 0H48.8869L35.5285 16.0173Z" fill="url(#paint0_linear_41_132)"/>
<path d="M67.6194 19.3529C67.6194 21.9719 66.7541 22.6818 64.3619 22.6818C63.2917 22.6818 62.3158 22.6187 61.6394 22.5556V27.0359H60.6163V16.1508C61.7654 16.0403 62.5521 16.0247 64.2518 16.0247C66.7542 16.0247 67.6195 16.7502 67.6195 19.3531L67.6194 19.3529ZM64.2361 21.7826C65.9671 21.7666 66.5653 21.2777 66.5653 19.3529C66.5653 17.4282 65.9671 16.908 64.2361 16.908C63.1816 16.908 62.269 16.908 61.6395 16.9237V21.7826H64.2361Z" fill="white"/>
<path d="M76.1647 27.0359L75.1259 23.6127C74.8112 22.7135 74.3232 22.3663 73.5678 22.3663C72.4034 22.3663 71.5064 22.3505 70.8769 22.3349V27.0359H69.8538V16.1508C71.0029 16.0403 71.7896 16.0247 73.4893 16.0247C75.9287 16.0247 76.873 16.6871 76.873 19.1324C76.873 20.9623 76.2907 21.7667 74.8742 21.9721V22.0351C75.4251 22.1928 75.9287 22.7292 76.1649 23.5811L77.2663 27.036H76.1649L76.1647 27.0359ZM73.4892 21.4671C75.2201 21.4513 75.834 20.9622 75.834 19.1797C75.834 17.3972 75.2202 16.908 73.4892 16.908C72.4189 16.908 71.5064 16.9237 70.8769 16.9393V21.4671H73.4892Z" fill="white"/>
<path d="M87.4793 21.5933C87.4793 25.8052 86.3936 27.2253 83.2929 27.2253C80.1923 27.2253 79.1068 25.8053 79.1068 21.5933C79.1068 17.3813 80.1926 15.9612 83.2929 15.9612C86.3933 15.9612 87.4793 17.3811 87.4793 21.5933ZM80.177 21.5933C80.177 25.1271 80.9638 26.3101 83.2929 26.3101C85.6221 26.3101 86.3936 25.1271 86.3936 21.5933C86.3936 18.0596 85.6221 16.8764 83.2929 16.8764C80.9638 16.8764 80.177 18.0596 80.177 21.5933Z" fill="white"/>
<path d="M96.9999 19.3529C96.9999 21.9719 96.1343 22.6818 93.7422 22.6818C92.672 22.6818 91.6961 22.6187 91.0194 22.5556V27.0359H89.9965V16.1508C91.1453 16.0403 91.9323 16.0247 93.632 16.0247C96.1344 16.0247 97 16.7502 97 19.3531L96.9999 19.3529ZM93.6162 21.7826C95.3471 21.7666 95.9454 21.2777 95.9454 19.3529C95.9454 17.4282 95.3471 16.908 93.6162 16.908C92.5617 16.908 91.6487 16.908 91.0192 16.9237V21.7826H93.6162Z" fill="white"/>
<path d="M54.0047 21.6266L51.0613 26.8964H49.9279L53.1234 21.2479L50.1328 16.0095H51.2503L53.9733 20.8217H54.4612L57.1683 16.0095H58.3017L55.3111 21.2479L58.5062 26.8964H57.3572L54.4298 21.6266H54.0047Z" fill="url(#paint1_linear_41_132)"/>
<defs>
<linearGradient id="paint0_linear_41_132" x1="0" y1="22" x2="49.9332" y2="22" gradientUnits="userSpaceOnUse">
<stop stop-color="#54B89A"/>
<stop offset="1" stop-color="#00EC6D"/>
</linearGradient>
<linearGradient id="paint1_linear_41_132" x1="49.9279" y1="21.453" x2="58.5062" y2="21.453" gradientUnits="userSpaceOnUse">
<stop stop-color="#54B89A"/>
<stop offset="1" stop-color="#00EC6D"/>
</linearGradient>
</defs>
</svg>
